<svg xmlns="http://www.w3.org/2000/svg" width="1000" height="1000" viewBox="0 0 1000 1000"><defs><clipPath id="a" clipPathUnits="userSpaceOnUse"><path d="M0 0h3125v3125H0z" clip-rule="evenodd"/></clipPath><clipPath id="c" clipPathUnits="userSpaceOnUse"><path d="M190.625 586.25h2710.547v2112.5H190.625z" clip-rule="evenodd"/></clipPath><clipPath id="e" clipPathUnits="userSpaceOnUse"><path d="M0 0h3125v3125H0z" clip-rule="evenodd"/></clipPath><clipPath id="f" clipPathUnits="userSpaceOnUse"><path d="M0 0h3125v3125H0z"/></clipPath><clipPath id="g" clipPathUnits="userSpaceOnUse"><path d="M3125 0H0v3125h3125zM261.36 87.5h-10.987v10h10.987z" clip-rule="evenodd"/></clipPath><clipPath id="h" clipPathUnits="userSpaceOnUse"><path d="M0 0h3125v3125H0z" clip-rule="evenodd"/></clipPath><clipPath id="i" clipPathUnits="userSpaceOnUse"><path d="M0 0h3125v3125H0z"/></clipPath><clipPath id="j" clipPathUnits="userSpaceOnUse"><path d="M3125 0H0v3125h3125zM1576.558 143.75h-13.075v10h13.075z" clip-rule="evenodd"/></clipPath><clipPath id="k" clipPathUnits="userSpaceOnUse"><path d="M0 0h3125v3125H0z" clip-rule="evenodd"/></clipPath><clipPath id="l" clipPathUnits="userSpaceOnUse"><path d="M0 375h3125v2750H0z" clip-rule="evenodd"/></clipPath><clipPath id="m" clipPathUnits="userSpaceOnUse"><path d="M0 0h3125v3125H0z" clip-rule="evenodd"/></clipPath><clipPath id="n" clipPathUnits="userSpaceOnUse"><path d="M437.5 246.875h278.125v87.5H437.5z" clip-rule="evenodd"/></clipPath><clipPath id="o" clipPathUnits="userSpaceOnUse"><path d="M0 0h3125v3125H0z" clip-rule="evenodd"/></clipPath><linearGradient id="b" x1="0" x2="0" y1="-672" y2="1568" gradientTransform="matrix(.24 0 0 -.24 0 240)" gradientUnits="userSpaceOnUse" spreadMethod="pad"><stop offset="0" stop-color="#f037a5"/><stop offset="1" stop-color="#fae62d"/></linearGradient><linearGradient id="d" x1="-1.067" x2="1.546" y1=".705" y2=".601" gradientTransform="matrix(-162.22497 -5.66502 -7.19 205.89443 930.836 -132.778)" gradientUnits="userSpaceOnUse" spreadMethod="pad"><stop offset="0" stop-color="#ef37a4"/><stop offset="1" stop-color="#fae62d"/></linearGradient></defs><g clip-path="url(#a)" transform="matrix(.32 0 0 .32 0 0)"><path fill="#fff" d="M0 0h3125v6846.875H0z"/><path fill="url(#b)" d="M0 0h1000v1120H0z" transform="scale(3.125)"/></g><g clip-path="url(#c)" transform="matrix(.32 0 0 .32 0 0)"><path fill="url(#d)" d="M485.94 496.837c70.274-8.64 135.824 38.993 148.32 109.534 12.902 72.904-35.735 142.467-108.667 155.381-57.156 10.118-112.12-17.686-139.493-65.242a196.533 196.533 0 01-60.855 21.525c-107.13 18.96-209.362-52.498-228.326-159.608-18.964-107.11 52.508-209.309 159.637-228.27 107.13-18.96 209.347 52.483 228.311 159.593.42 2.363.746 4.725 1.073 7.087zM767.379 57.026c17.673 99.852-48.949 195.12-148.804 212.79-99.87 17.686-195.155-48.924-212.844-148.776C388.057 21.204 454.679-74.08 554.55-91.75c99.854-17.686 195.14 48.94 212.829 148.776zM541.654 413.432c-28.74 5.082-56.16-14.08-61.243-42.816-5.099-28.735 14.083-56.15 42.824-61.232 28.725-5.082 56.145 14.08 61.243 42.816 5.083 28.736-14.083 56.15-42.824 61.232z" transform="matrix(-.05499 -3.1525 3.15024 -.05503 521.986 3021.719)"/></g><g clip-path="url(#e)" transform="matrix(.32 0 0 .32 0 0)"><path fill="#509bf5" d="M0 0h3125v206.25H0z"/><text style="-inkscape-font-specification:OTS-derived-font" fill="#fff" font-family="OTS-derived" font-size="12" transform="translate(46.875 87.5) scale(3.125)"><tspan x="0 11.699982 18.263977 21.287964 27.56395 34.271942 41.339935" y="0">We and</tspan></text></g><g clip-path="url(#f)" transform="matrix(.32 0 0 .32 0 0)"><g clip-path="url(#g)"><path fill="#fff" d="M185.498 90.625h206.397v3.125H185.498z"/></g></g><g clip-path="url(#h)" transform="matrix(.32 0 0 .32 0 0)"><g fill="#fff" font-family="OTS-derived" font-size="12"><text style="-inkscape-font-specification:OTS-derived-font" transform="translate(185.498 87.5) scale(3.125)"><tspan x="0 6.9599915 13.667984 18.023972 21.047958 28.175949 34.451935 38.807922 42.971909 49.679901 56.243896 60.599884" y="0">our partners</tspan></text><text style="-inkscape-font-specification:OTS-derived-font" transform="translate(401.344 87.5) scale(3.125)"><tspan x="0 6.7079926 12.167984 18.731979 21.755966 28.223953 35.183945 42.143936 48.455933 51.39592 57.959915 63.419907 66.443893 70.559875 77.519867 80.543854 87.671844 94.23584 98.591827 104.05182 111.01181 117.7198 123.99579 126.94778 129.88777 135.53976 142.10376 145.12775 151.39174 158.35173 165.05972 169.41571 172.4397 178.83568 184.91968 192.04767 198.61166 202.96765 205.90764 212.47163 219.17963 225.64761 232.21161 235.4276 238.45158 242.56757 249.52756 252.55154 258.01154 264.71954 271.55951 281.3515 284.37549 290.63947 297.59946 304.30743 307.33142 313.60742 320.67542 326.13541 329.15939 336.28738 342.56335 348.02335 354.58734 361.65533 364.67932 371.63931 378.34729 381.37128 387.63525 394.59525 401.30322 405.65921 408.6832 411.62317 418.28314 422.39911 428.9631 433.21109 439.77509 445.23508 449.39905 454.85904 458.07501 461.099 467.375 474.08301 481.151 484.17499 488.24298 495.20297 499.55896 502.58295 512.83093 519.39496 525.67096 531.13092 537.83893 542.08691 548.65094 558.89893 565.46295 572.12292 576.28693 579.31091 585.58691 592.29492 599.36292 602.3869 608.6629 615.37091 621.64691 624.59894 631.05493 635.21893 638.15894 644.62689 650.08685 653.11084 660.23883 666.94684 671.3028 678.43079 685.39081 690.85077 697.41473 702.87469 705.89868 708.92267 716.21869 722.67468 725.69867 732.40668 737.86664 740.80664 747.51465 754.51062 757.53461 764.49457 771.20258" y="0">use cookies to personalize your experience, to show you ads based on your interests, and for measurement and analytics purposes. By using our</tspan></text><text style="-inkscape-font-specification:OTS-derived-font" transform="translate(46.875 143.75) scale(3.125)"><tspan x="0 9.6719818 16.235977 23.363968 28.823959 31.763947 35.879929 42.443924 45.467911 51.743896 58.451889 65.519882 68.543869 75.50386 82.211853 86.567841 89.591827 95.051819 101.61581 105.9718 112.3078 115.24779 121.71577 128.27977 133.73976 136.95575 139.97974 146.24373 153.20372 159.91171 162.9357 169.21169 176.20767 180.45566 187.01965 193.58365 196.60764 200.72362 207.68361 210.7076 217.66759 224.37558 228.73157 231.75555 238.46355 243.92354 250.48753 253.51152 260.37549 264.56348 267.58746 274.05545 281.01544 287.97543 294.28741 297.22742 303.79141 309.2514 312.27539 318.55139 324.01138 327.03537 334.10336 340.66736 346.12735 352.59534 356.95132 359.8913 367.01929 373.58328 380.65128 383.67526 386.61523 393.32324 396.34723 403.30722 410.0152 414.37119" y="0">website and our services, you agree to our use of cookies as described in our</tspan></text></g></g><g clip-path="url(#i)" transform="matrix(.32 0 0 .32 0 0)"><g clip-path="url(#j)"><path fill="#fff" d="M1351.22 146.875h231.837V150H1351.22z"/></g></g><g clip-path="url(#k)" transform="matrix(.32 0 0 .32 0 0)"><g fill="#fff" font-family="OTS-derived"><text style="-inkscape-font-specification:OTS-derived-font" font-size="12" transform="translate(1351.22 143.75) scale(3.125)"><tspan x="0 8.9759979 15.935989 22.895981 29.207977 32.147964 38.71196 41.735947 48.575943 55.535934 58.48793 61.427917 67.739899" y="0">Cookie Policy</tspan></text><text style="-inkscape-font-specification:OTS-derived-font" font-size="12" transform="translate(1583.057 143.75) scale(3.125)"><tspan x="0" y="0">.</tspan></text><text style="-inkscape-font-specification:OTS-derived-font" font-size="18" transform="translate(3034.375 128.125) scale(3.125)"><tspan x="0" y="0">✕</tspan></text></g></g><g clip-path="url(#l)" transform="matrix(.32 0 0 .32 0 0)"><text style="-inkscape-font-specification:OTS-derived-font" fill="#fff" font-family="OTS-derived" font-size="48" transform="translate(913.965 1821.875) scale(3.125)"><tspan x="0 44.304001 70.751999 91.871994 103.39198 128.68797 137.90396 154.27194 181.15193 198.47992 207.69591 232.3199 256.75189 282.19189 299.51987 324.38385 351.26382 377.66382 403.10382" y="0">Music for everyone.</tspan></text><text style="-inkscape-font-specification:OTS-derived-font" fill="#fff" font-family="OTS-derived" font-size="18" transform="translate(1043.701 1937.5) scale(3.125)"><tspan x="0 17.207993 21.617981 26.045975 30.473969 34.883957 45.323944 55.385941 63.575928 68.111923 78.407898 84.689896 89.225891 97.415878 107.85587 117.91786 128.41185 136.60184 141.13783 145.67383 159.3898 169.82979 174.36578 184.06778 190.43977 200.28577 210.88776 215.29774 221.54373 226.07973 235.78172 245.19571 251.5677 262.16968 266.70569 276.7677 286.61371 296.45972 307.06171 316.90771 327.5097" y="0">Millions of songs. No credit card needed.</tspan></text><path fill="#1db954" d="M1165.625 2125a74.927 74.927 0 013.23-21.771 75.01 75.01 0 0113.794-25.809 75 75 0 0157.976-27.42h643.75a75.054 75.054 0 0121.771 3.23 74.985 74.985 0 0136.205 24.19 74.96 74.96 0 0113.794 25.809 74.963 74.963 0 013.23 21.771 74.903 74.903 0 01-3.23 21.771 74.922 74.922 0 01-5.626 13.584 74.952 74.952 0 01-13.111 17.678 74.917 74.917 0 01-17.678 13.111 74.893 74.893 0 01-13.584 5.626 74.902 74.902 0 01-14.42 2.869c-2.444.24-4.895.361-7.351.361h-643.75a74.961 74.961 0 01-28.701-5.71 74.94 74.94 0 01-18.878-11.314 74.895 74.895 0 01-10.397-10.397 74.977 74.977 0 01-15.583-32.947 74.937 74.937 0 01-1.441-14.632z"/><text style="-inkscape-font-specification:OTS-derived-font" fill="#fff" font-family="OTS-derived" font-size="14" transform="translate(1316.309 2140.625) scale(3.125)"><tspan x="0 12.93399 23.039978 33.705978 39.023972 49.563965 60.033951 73.093933 83.759933 90.04393 100.00992 111.23592 116.55391 126.5199 137.33989 147.44588" y="0">GET SPOTIFY FREE</tspan></text></g><g clip-path="url(#m)" transform="matrix(.32 0 0 .32 0 0)"><path d="M0 206.25h3125V375H0z"/></g><g clip-path="url(#n)" transform="matrix(.32 0 0 .32 0 0)"><path fill="#fff" fill-rule="evenodd" d="M710.494 288.464c-.6.001-1.177-.111-1.731-.338a4.462 4.462 0 01-1.468-.97 4.417 4.417 0 01-.978-1.456 4.385 4.385 0 01-.339-1.716c0-2.459 2-4.507 4.542-4.507.6-.001 1.177.111 1.732.338.554.227 1.043.55 1.467.971.424.42.75.906.978 1.455.228.55.341 1.122.339 1.716a4.43 4.43 0 01-.346 1.724 4.46 4.46 0 01-.984 1.461 4.506 4.506 0 01-1.474.977 4.538 4.538 0 01-1.738.345m.026-8.54a4.03 4.03 0 00-1.568.3 4.002 4.002 0 00-1.328.881 3.961 3.961 0 00-.88 1.322 3.933 3.933 0 00-.293 1.557c0 2.231 1.739 4.03 4.043 4.03a4.035 4.035 0 001.567-.303 4.007 4.007 0 001.327-.88c.382-.38.676-.82.88-1.319a3.938 3.938 0 00.296-1.554 3.902 3.902 0 00-.29-1.548 3.93 3.93 0 00-.874-1.314c-.381-.38-.821-.67-1.32-.874a4 4 0 00-1.56-.298m.998 4.493l1.28 1.776h-1.077l-1.148-1.627h-.993v1.627h-.9v-4.703h2.119c1.099 0 1.823.56 1.823 1.5 0 .77-.45 1.243-1.104 1.427m-.76-2.122h-1.178v1.488h1.179c.587 0 .936-.285.936-.744 0-.481-.353-.744-.936-.744m-56.518-15.4c-.61 0-1.198.115-1.763.346a4.563 4.563 0 00-1.494.988 4.518 4.518 0 00-1 1.48 4.486 4.486 0 00-.351 1.747c0 .605.116 1.188.35 1.747.233.56.566 1.053.997 1.481.432.428.93.758 1.494.99a4.596 4.596 0 001.763.347c.61 0 1.198-.116 1.762-.347a4.565 4.565 0 001.495-.99 4.52 4.52 0 00.998-1.481c.234-.56.35-1.142.35-1.747 0-.605-.116-1.188-.35-1.747a4.519 4.519 0 00-.998-1.481 4.565 4.565 0 00-1.495-.99 4.598 4.598 0 00-1.762-.347m3.178 12.643h-6.418c-.312.003-.468.16-.468.468v27.764c0 .263.207.468.468.468h6.422c.315 0 .473-.156.473-.468v-27.763c0-.313-.158-.469-.473-.469m14.271.027v-.875c0-2.59 1.002-3.745 3.249-3.745 1.337 0 2.41.262 3.62.665.152.051.294.03.425-.065a.438.438 0 00.192-.382V269.8c0-.23-.112-.38-.335-.446a17.667 17.667 0 00-5.341-.762c-5.928 0-9.062 3.312-9.062 9.573v1.347h-3.086c-.312 0-.47.155-.472.464v5.5a.47.47 0 00.472.468h3.086v21.831c0 .254.207.464.468.464h6.422c.312-.003.468-.16.468-.468v-21.832h5.994l9.186 21.832c-1.042 2.288-2.066 2.747-3.465 2.747-1.135 0-2.326-.337-3.545-.997a.467.467 0 00-.37-.035.447.447 0 00-.279.253l-2.176 4.73c-.124.263-.058.464.199.603 2.273 1.221 4.326 1.742 6.86 1.742 4.74 0 7.362-2.188 9.67-8.08l11.142-28.535a.435.435 0 00-.046-.435.443.443 0 00-.391-.203h-6.683a.434.434 0 00-.442.315l-6.85 19.385-7.504-19.398a.43.43 0 00-.437-.302h-10.97m-24.616-.027h-7.063v-7.161c0-.313-.157-.467-.472-.464h-6.423c-.309.003-.465.157-.467.464v7.161h-3.09c-.315 0-.471.156-.468.469v5.468a.47.47 0 00.468.468h3.09v14.15c0 5.722 2.869 8.618 8.536 8.618 2.304 0 4.211-.468 6.012-1.479.16-.09.24-.225.239-.407v-5.206a.435.435 0 00-.22-.4.444.444 0 00-.46-.02c-1.236.617-2.432.901-3.77.901-2.061 0-2.98-.923-2.98-3.001v-13.156h7.063c.318.003.476-.153.473-.468v-5.469c.003-.312-.153-.468-.468-.468m-33.86-.582c-8.652 0-15.437 6.607-15.437 15.037 0 8.344 6.736 14.875 15.33 14.875 8.683 0 15.485-6.58 15.485-14.98 0-8.373-6.753-14.931-15.379-14.931m0 23.458c-4.603 0-8.077-3.666-8.077-8.531 0-4.878 3.354-8.417 7.971-8.417 4.635 0 8.122 3.666 8.122 8.53 0 4.879-3.368 8.418-8.016 8.418m-30.96-23.458c-3.62 0-6.586 1.413-9.031 4.305v-3.255c0-.31-.156-.466-.468-.469h-6.422c-.312.003-.468.16-.468.468v36.182c0 .254.212.464.468.464h6.422c.31-.003.465-.158.468-.464v-11.419c2.45 2.717 5.416 4.047 9.031 4.047 6.718 0 13.52-5.128 13.52-14.928s-6.797-14.931-13.52-14.931m6.056 14.931c0 4.988-3.103 8.475-7.543 8.475-4.392 0-7.703-3.645-7.703-8.475s3.31-8.474 7.703-8.474c4.37 0 7.548 3.561 7.548 8.474m-37.242-7.918c-7.168-1.698-8.444-2.888-8.444-5.386 0-2.362 2.243-3.95 5.58-3.95 3.23 0 6.44 1.203 9.799 3.688.254.186.475.152.662-.101l3.505-4.896c.166-.237.137-.447-.089-.63-3.999-3.185-8.506-4.73-13.772-4.73-7.746 0-13.153 4.603-13.153 11.197 0 7.065 4.665 9.568 12.73 11.497 6.86 1.566 8.02 2.879 8.02 5.228 0 2.599-2.34 4.213-6.113 4.213-4.185 0-7.597-1.4-11.42-4.672a.471.471 0 00-.666.052l-3.929 4.629c-.2.232-.185.448.049.648 4.485 4.027 9.754 6.03 15.807 6.006 8.342 0 13.736-4.519 13.736-11.51 0-5.91-3.562-9.179-12.302-11.288m-71.587-37.752a41.794 41.794 0 00-15.895 3.134 41.56 41.56 0 00-13.476 8.924 41.148 41.148 0 00-9.004 13.357 40.8 40.8 0 00-3.161 15.754 40.8 40.8 0 003.162 15.755 41.149 41.149 0 009.004 13.356 41.56 41.56 0 0013.475 8.924 41.795 41.795 0 0023.997 2.34 41.712 41.712 0 0014.967-6.15 41.363 41.363 0 0011.456-11.357 40.952 40.952 0 006.997-22.868 40.8 40.8 0 00-3.16-15.751 41.148 41.148 0 00-9-13.354 41.56 41.56 0 00-13.47-8.925 41.794 41.794 0 00-15.89-3.138m19.05 59.377a2.49 2.49 0 01-1.603 1.16 2.51 2.51 0 01-1.96-.307c-9.755-5.906-22.026-7.24-36.487-3.968a2.512 2.512 0 01-1.952-.329 2.472 2.472 0 01-1.146-1.6 2.453 2.453 0 01.331-1.936c.38-.6.919-.978 1.615-1.136 15.82-3.587 29.393-2.043 40.34 4.59a2.557 2.557 0 01.861 3.526m5.076-11.209a3.12 3.12 0 01-2.004 1.441 3.146 3.146 0 01-2.445-.382c-11.163-6.803-28.184-8.772-41.39-4.8a3.159 3.159 0 01-2.366-.34 3.112 3.112 0 01-1.488-1.855 3.082 3.082 0 01.197-2.36c.38-.762.973-1.29 1.776-1.587 15.087-4.537 33.838-2.336 46.656 5.469a3.096 3.096 0 011.459 1.99 3.07 3.07 0 01-.39 2.428m.441-11.676c-13.392-7.88-35.48-8.606-48.259-4.756a3.77 3.77 0 01-2.987-.26c-.959-.499-1.596-1.262-1.91-2.29-.315-1.028-.214-2.013.304-2.957.517-.943 1.296-1.563 2.338-1.86 14.668-4.42 39.06-3.562 54.47 5.503.922.543 1.516 1.329 1.781 2.36.266 1.03.125 2.002-.422 2.917-.548.914-1.341 1.503-2.38 1.766a3.772 3.772 0 01-2.944-.419"/></g><g clip-path="url(#o)" transform="matrix(.32 0 0 .32 0 0)"><g fill="#fff"><path d="M2618.75 268.75v-3.125c0-.863.305-1.6.915-2.21a3.011 3.011 0 012.21-.915h62.5c.863 0 1.6.305 2.21.915.61.61.915 1.347.915 2.21v3.125c0 .863-.305 1.6-.916 2.21a3.01 3.01 0 01-2.209.915h-62.5c-.863 0-1.6-.305-2.21-.915a3.01 3.01 0 01-.915-2.21zM2618.75 290.625V287.5c0-.863.305-1.6.915-2.21a3.011 3.011 0 012.21-.915h62.5c.863 0 1.6.305 2.21.915.61.61.915 1.347.915 2.21v3.125c0 .863-.305 1.6-.916 2.21a3.01 3.01 0 01-2.209.915h-62.5c-.863 0-1.6-.305-2.21-.915a3.01 3.01 0 01-.915-2.21zM2618.75 312.5v-3.125c0-.863.305-1.6.915-2.21a3.011 3.011 0 012.21-.915h62.5c.863 0 1.6.305 2.21.915.61.61.915 1.347.915 2.21v3.125c0 .863-.305 1.6-.916 2.21a3.01 3.01 0 01-2.209.915h-62.5c-.863 0-1.6-.305-2.21-.915a3.01 3.01 0 01-.915-2.21z"/></g></g></svg>